<svg height="512" viewBox="0 0 60 56" width="512" xmlns="http://www.w3.org/2000/svg"><g id="Page-1" fill="none" fill-rule="evenodd"><g id="109---Folder" fill-rule="nonzero"><path id="Shape" d="m53 11v3h-52v-9c0-2.209139 1.790861-4 4-4h22c2.209139 0 4 1.790861 4 4v2h18c2.209139 0 4 1.790861 4 4z" fill="#a4c2f7"/><path id="Shape" d="m28 5v2h3v-2c0-2.209139-1.790861-4-4-4h-3c2.209139 0 4 1.790861 4 4z" fill="#7facfa"/><path id="Shape" d="m49 7h-3c2.209139 0 4 1.790861 4 4v3h3v-3c0-2.209139-1.790861-4-4-4z" fill="#7facfa"/><path id="Shape" d="m59 20v29c0 3.3137085-2.6862915 6-6 6h-46c-3.3137085 0-6-2.6862915-6-6v-35h52c3.3137085 0 6 2.6862915 6 6z" fill="#e8edfc"/><path id="Shape" d="m53 14h-3c3.3137085 0 6 2.6862915 6 6v29c0 3.3137085-2.6862915 6-6 6h3c3.3137085 0 6-2.6862915 6-6v-29c0-3.3137085-2.6862915-6-6-6z" fill="#cad9fc"/><path id="Shape" d="m1 49c0 3.3137085 2.6862915 6 6 6h3c-3.3137085 0-6-2.6862915-6-6v-44c0-2.209139 1.790861-4 4-4h-3c-2.209139 0-4 1.790861-4 4z" fill="#fff"/><path id="Rectangle-path" d="m0 41h2v8h-2z" fill="#fff"/><g fill="#428dff"><circle id="Oval" cx="1" cy="45" r="1"/><path id="Shape" d="m54 13.08v-2.08c-.0033061-2.76005315-2.2399468-4.99669388-5-5h-17v-1c-.0033061-2.76005315-2.2399468-4.99669388-5-5h-22c-2.76005315.00330612-4.99669388 2.23994685-5 5v36c0 .5522847.44771525 1 1 1s1-.4477153 1-1v-36c0-1.65685425 1.34314575-3 3-3h22c1.6568542 0 3 1.34314575 3 3v2c0 .55228475.4477153 1 1 1h18c1.6568542 0 3 1.34314575 3 3v2h-28c-.5522847 0-1 .4477153-1 1s.4477153 1 1 1h29c2.7600532.0033061 4.9966939 2.2399468 5 5v29c-.0033061 2.7600532-2.2399468 4.9966939-5 5h-46c-2.76005315-.0033061-4.99669388-2.2399468-5-5 0-.5522847-.44771525-1-1-1s-1 .4477153-1 1c.00495836 3.8639376 3.13606244 6.9950416 7 7h46c3.8639376-.0049584 6.9950416-3.1360624 7-7v-29c-.0066473-3.4756199-2.5603905-6.420937-6-6.92z"/><path id="Shape" d="m19 15c.5522847 0 1-.4477153 1-1s-.4477153-1-1-1h-4c-.5522847 0-1 .4477153-1 1s.4477153 1 1 1z"/></g></g></g></svg>